<svg width="13" height="12" viewBox="0 0 13 12" fill="none" xmlns="http://www.w3.org/2000/svg">
  <path
    fill="url(#paint0_linear_1_150)"
    d="M6.18103 7.05516L10.6888 11.5629C10.9302 11.8043 11.3216 11.8043 11.5629 11.5629C11.8043 11.3216 11.8043 10.9302 11.5629 10.6888L7.05516 6.18103L11.925 1.3112C12.1664 1.06981 12.1664 0.67845 11.925 0.437065C11.6836 0.195681 11.2922 0.195681 11.0509 0.437065L6.18103 5.3069L1.3112 0.437065C1.06981 0.195681 0.67845 0.195681 0.437065 0.437065C0.195681 0.67845 0.19568 1.06981 0.437065 1.3112L5.3069 6.18103L0.799126 10.6888C0.557741 10.9302 0.557741 11.3216 0.799126 11.5629C1.04051 11.8043 1.43187 11.8043 1.67326 11.5629L6.18103 7.05516Z"
  />
  <defs>
    <linearGradient id="paint0_linear_1_150" x1="6.18103" y1="0" x2="6.18103" y2="12" gradientUnits="userSpaceOnUse">
      <stop stop-color="#FAFAFA" />
      <stop offset="1" stop-color="#666666" />
    </linearGradient>
  </defs>
</svg>
