<svg viewBox="0 0 14 14" fill="none" xmlns="http://www.w3.org/2000/svg">
  <path
    d="M6.87256 8.21696L12.0705 13.4149C12.3489 13.6933 12.8002 13.6933 13.0785 13.4149C13.3569 13.1366 13.3569 12.6853 13.0785 12.407L7.88053 7.20898L13.496 1.5935C13.7744 1.31516 13.7744 0.863874 13.496 0.58553C13.2177 0.307186 12.7664 0.307186 12.488 0.58553L6.87256 6.20101L1.25708 0.58553C0.978734 0.307186 0.527448 0.307186 0.249104 0.58553C-0.0292402 0.863874 -0.02924 1.31516 0.249104 1.5935L5.86458 7.20898L0.666602 12.407C0.388257 12.6853 0.388257 13.1366 0.666602 13.4149C0.944946 13.6933 1.39623 13.6933 1.67458 13.4149L6.87256 8.21696Z"
    fill="url(#paint0_linear_1_14)"
  />
  <defs>
    <linearGradient id="paint0_linear_1_14" x1="6.87256" y1="0.081543" x2="6.87256" y2="13.9189" gradientUnits="userSpaceOnUse">
      <stop stop-color="#FAFAFA" />
      <stop offset="1" stop-color="#666666" />
    </linearGradient>
  </defs>
</svg>
