<svg width="24" height="24" viewBox="0 0 24 24" fill="none" xmlns="http://www.w3.org/2000/svg">
  <path fill-rule="evenodd" clip-rule="evenodd"
    fill="#FAFAFA"
    d="M1.7568 1.7568C0 3.516 0 6.3432 0 12C0 17.6568 0 20.4852 1.7568 22.242C3.516 24 6.3432 24 12 24C17.6568 24 20.4852 24 22.242 22.242C24 20.4864 24 17.6568 24 12C24 6.3432 24 3.5148 22.242 1.7568C20.4864 0 17.6568 0 12 0C6.3432 0 3.5148 0 1.7568 1.7568ZM5.3088 9.024C5.4616 8.84074 5.68093 8.72566 5.91855 8.70406C6.15618 8.68246 6.39265 8.7561 6.576 8.9088L6.9084 9.1848C7.6344 9.7896 8.2524 10.3044 8.6796 10.7784C9.1344 11.2824 9.4884 11.8596 9.4884 12.6C9.4884 13.3404 9.1344 13.9188 8.6796 14.4216C8.2524 14.8956 7.6344 15.4104 6.9084 16.0152L6.576 16.2912C6.48568 16.3702 6.38047 16.4304 6.26655 16.4681C6.15264 16.5059 6.03232 16.5205 5.91269 16.511C5.79305 16.5016 5.67651 16.4684 5.56992 16.4132C5.46332 16.3581 5.36883 16.2822 5.29201 16.19C5.21518 16.0978 5.15757 15.9912 5.12256 15.8764C5.08755 15.7616 5.07585 15.641 5.08815 15.5216C5.10044 15.4022 5.13649 15.2865 5.19417 15.1813C5.25185 15.076 5.32999 14.9834 5.424 14.9088L5.7048 14.6748C6.4956 14.0148 7.0128 13.5828 7.344 13.2156C7.6584 12.8676 7.6884 12.7032 7.6884 12.6C7.6884 12.4968 7.6584 12.3336 7.344 11.9844C7.0116 11.6172 6.4956 11.184 5.7048 10.5252L5.424 10.2912C5.24074 10.1384 5.12566 9.91907 5.10406 9.68145C5.08246 9.44382 5.1561 9.20735 5.3088 9.024ZM18.9 15.6C18.9 15.8387 18.8052 16.0676 18.6364 16.2364C18.4676 16.4052 18.2387 16.5 18 16.5H12C11.7613 16.5 11.5324 16.4052 11.3636 16.2364C11.1948 16.0676 11.1 15.8387 11.1 15.6C11.1 15.3613 11.1948 15.1324 11.3636 14.9636C11.5324 14.7948 11.7613 14.7 12 14.7H18C18.2387 14.7 18.4676 14.7948 18.6364 14.9636C18.8052 15.1324 18.9 15.3613 18.9 15.6Z"
  />
</svg>
