<svg
  width="28"
  height="28"
  viewBox="0 0 28 28"
  fill="none"
  xmlns="http://www.w3.org/2000/svg"
>
  <path
    fill-rule="evenodd"
    clip-rule="evenodd"
    d="M2.0496 2.0496C0 4.102 0 7.4004 0 14C0 20.5996 0 23.8994 2.0496 25.949C4.102 28 7.4004 28 14 28C20.5996 28 23.8994 28 25.949 25.949C28 23.9008 28 20.5996 28 14C28 7.4004 28 4.1006 25.949 2.0496C23.9008 0 20.5996 0 14 0C7.4004 0 4.1006 0 2.0496 2.0496ZM6.1936 10.528C6.37187 10.3142 6.62775 10.1799 6.90498 10.1547C7.18221 10.1295 7.4581 10.2155 7.672 10.3936L8.0598 10.7156C8.9068 11.4212 9.6278 12.0218 10.1262 12.5748C10.6568 13.1628 11.0698 13.8362 11.0698 14.7C11.0698 15.5638 10.6568 16.2386 10.1262 16.8252C9.6278 17.3782 8.9068 17.9788 8.0598 18.6844L7.672 19.0064C7.56662 19.0986 7.44388 19.1688 7.31098 19.2128C7.17808 19.2569 7.03771 19.2739 6.89813 19.2629C6.75856 19.2519 6.62259 19.2131 6.49823 19.1488C6.37388 19.0844 6.26364 18.9959 6.17401 18.8883C6.08438 18.7808 6.01716 18.6564 5.97632 18.5225C5.93547 18.3885 5.92182 18.2478 5.93617 18.1085C5.95052 17.9693 5.99257 17.8343 6.05986 17.7115C6.12716 17.5887 6.21832 17.4806 6.328 17.3936L6.6556 17.1206C7.5782 16.3506 8.1816 15.8466 8.568 15.4182C8.9348 15.0122 8.9698 14.8204 8.9698 14.7C8.9698 14.5796 8.9348 14.3892 8.568 13.9818C8.1802 13.5534 7.5782 13.048 6.6556 12.2794L6.328 12.0064C6.1142 11.8281 5.97994 11.5723 5.95474 11.295C5.92953 11.0178 6.01545 10.7419 6.1936 10.528ZM22.05 18.2C22.05 18.4785 21.9394 18.7455 21.7425 18.9425C21.5455 19.1394 21.2785 19.25 21 19.25H14C13.7215 19.25 13.4545 19.1394 13.2575 18.9425C13.0606 18.7455 12.95 18.4785 12.95 18.2C12.95 17.9215 13.0606 17.6545 13.2575 17.4575C13.4545 17.2606 13.7215 17.15 14 17.15H21C21.2785 17.15 21.5455 17.2606 21.7425 17.4575C21.9394 17.6545 22.05 17.9215 22.05 18.2Z"
    fill="#888888"
  />
</svg>
