<svg viewBox="0 0 28 28" fill="none" xmlns="http://www.w3.org/2000/svg">
  <path
    fill-rule="evenodd"
    clip-rule="evenodd"
    d="M16.491 0.2128C15.973 -6.25849e-08 15.315 0 14.0004 0C12.6858 0 12.0292 -6.25849e-08 11.5098 0.2128C11.168 0.352444 10.8573 0.558294 10.5954 0.818505C10.3335 1.07872 10.1256 1.38815 9.98379 1.729C9.85219 2.0412 9.80179 2.4066 9.78079 2.9372C9.7708 3.3215 9.66329 3.69696 9.46835 4.0283C9.27342 4.35964 8.99746 4.63599 8.66639 4.8314C8.32863 5.01914 7.94895 5.1186 7.56253 5.12056C7.1761 5.12252 6.79544 5.02691 6.45579 4.8426C5.98259 4.5934 5.63959 4.4562 5.30079 4.4114C4.55961 4.31469 3.81017 4.51387 3.21479 4.9658C2.76959 5.3046 2.44059 5.8702 1.78399 7C1.12599 8.1298 0.798393 8.694 0.724193 9.247C0.626193 9.9834 0.827793 10.7282 1.28419 11.3176C1.49139 11.5864 1.78399 11.8118 2.23619 12.0946C2.90399 12.5104 3.33239 13.2188 3.33239 14C3.33239 14.7812 2.90399 15.4896 2.23759 15.904C1.78399 16.1882 1.49139 16.4136 1.28279 16.6824C1.05819 16.9739 0.893242 17.3068 0.797393 17.6621C0.701544 18.0174 0.676669 18.3881 0.724193 18.753C0.798393 19.3046 1.12599 19.8702 1.78399 21C2.44199 22.1298 2.76959 22.694 3.21479 23.0342C3.80839 23.4864 4.55879 23.6852 5.30079 23.5886C5.63959 23.5438 5.98259 23.4066 6.45579 23.1574C6.79561 22.9728 7.17654 22.8771 7.56323 22.8791C7.94993 22.881 8.32986 22.9806 8.66779 23.1686C9.34819 23.5606 9.75139 24.2816 9.78079 25.0628C9.80179 25.5948 9.85219 25.9588 9.98379 26.271C10.2694 26.957 10.8182 27.503 11.5098 27.7872C12.0278 28 12.6858 28 14.0004 28C15.315 28 15.973 28 16.491 27.7872C16.8328 27.6476 17.1435 27.4417 17.4054 27.1815C17.6673 26.9213 17.8752 26.6118 18.017 26.271C18.1486 25.9588 18.199 25.5948 18.22 25.0628C18.248 24.2816 18.6526 23.5592 19.3344 23.1686C19.6721 22.9809 20.0518 22.8814 20.4383 22.8794C20.8247 22.8775 21.2053 22.9731 21.545 23.1574C22.0182 23.4066 22.3612 23.5438 22.7 23.5886C23.442 23.6866 24.1924 23.4864 24.786 23.0342C25.2312 22.6954 25.5602 22.1298 26.2168 21C26.8748 19.8702 27.2024 19.306 27.2766 18.753C27.3239 18.388 27.2988 18.0172 27.2027 17.6619C27.1066 17.3067 26.9414 16.9738 26.7166 16.6824C26.5094 16.4136 26.2168 16.1882 25.7646 15.9054C25.0968 15.4896 24.6684 14.7812 24.6684 14C24.6684 13.2188 25.0968 12.5104 25.7632 12.096C26.2168 11.8118 26.5094 11.5864 26.718 11.3176C26.9426 11.0261 27.1075 10.6932 27.2034 10.3379C27.2992 9.98261 27.3241 9.61191 27.2766 9.247C27.2024 8.6954 26.8748 8.1298 26.2168 7C25.5588 5.8702 25.2312 5.306 24.786 4.9658C24.1906 4.51387 23.4412 4.31469 22.7 4.4114C22.3612 4.4562 22.0182 4.5934 21.545 4.8426C21.2052 5.02716 20.8243 5.1229 20.4376 5.12095C20.0509 5.11899 19.6709 5.01939 19.333 4.8314C19.0022 4.63582 18.7265 4.35939 18.5318 4.02806C18.3371 3.69673 18.2298 3.32137 18.22 2.9372C18.199 2.4052 18.1486 2.0412 18.017 1.729C17.8752 1.38815 17.6673 1.07872 17.4054 0.818505C17.1435 0.558294 16.8328 0.352444 16.491 0.2128ZM14.0004 18.2C16.3384 18.2 18.2326 16.3198 18.2326 14C18.2326 11.6802 16.337 9.8 14.0004 9.8C11.6638 9.8 9.76819 11.6802 9.76819 14C9.76819 16.3198 11.6638 18.2 14.0004 18.2Z"
    fill="#888888"
  />
</svg>
