<svg
  width="32"
  height="32"
  viewBox="0 0 32 32"
  fill="none"
  xmlns="http://www.w3.org/2000/svg"
>
  <path
    fill-rule="evenodd"
    clip-rule="evenodd"
    d="M0.832 9.3168C0 10.832 0 12.664 0 16.3248V18.76C0 25 -1.90735e-07 28.1216 1.8752 30.0608C3.7504 32 6.7664 32 12.8 32H19.2C25.2336 32 28.2512 32 30.1248 30.0608C31.9984 28.1216 32 25.0016 32 18.76V16.3264C32 12.664 32 10.8336 31.168 9.3168C30.3392 7.7984 28.8208 6.8576 25.7856 4.9728L22.5856 2.9872C19.3776 0.9952 17.7728 0 16 0C14.2272 0 12.624 0.9952 9.4144 2.9872L6.2144 4.9728C3.1792 6.8576 1.6624 7.7984 0.832 9.3168ZM14.8 25.6C14.8 25.9183 14.9264 26.2235 15.1515 26.4485C15.3765 26.6736 15.6817 26.8 16 26.8C16.3183 26.8 16.6235 26.6736 16.8485 26.4485C17.0736 26.2235 17.2 25.9183 17.2 25.6V20.8C17.2 20.4817 17.0736 20.1765 16.8485 19.9515C16.6235 19.7264 16.3183 19.6 16 19.6C15.6817 19.6 15.3765 19.7264 15.1515 19.9515C14.9264 20.1765 14.8 20.4817 14.8 20.8V25.6Z"
    fill="#888888"
  />
</svg>
