<svg viewBox="0 0 28 28" fill="none" xmlns="http://www.w3.org/2000/svg">
  <path
    fill-rule="evenodd"
    clip-rule="evenodd"
    d="M21.7 1.05C21.9785 1.05 22.2456 1.16062 22.4425 1.35754C22.6394 1.55445 22.75 1.82152 22.75 2.1V5.25H25.9C26.1785 5.25 26.4455 5.36062 26.6425 5.55754C26.8394 5.75445 26.95 6.02152 26.95 6.3C26.95 6.57848 26.8394 6.84555 26.6425 7.04246C26.4455 7.23938 26.1785 7.35 25.9 7.35H22.75V10.5C22.75 10.7785 22.6394 11.0455 22.4425 11.2425C22.2456 11.4394 21.9785 11.55 21.7 11.55C21.4215 11.55 21.1544 11.4394 20.9575 11.2425C20.7606 11.0455 20.65 10.7785 20.65 10.5V7.35H17.5C17.2215 7.35 16.9545 7.23938 16.7575 7.04246C16.5606 6.84555 16.45 6.57848 16.45 6.3C16.45 6.02152 16.5606 5.75445 16.7575 5.55754C16.9545 5.36062 17.2215 5.25 17.5 5.25H20.65V2.1C20.65 1.82152 20.7606 1.55445 20.9575 1.35754C21.1544 1.16062 21.4215 1.05 21.7 1.05Z"
    fill="#888888"
  />
  <path
    d="M0 6.3C0 3.3306 -8.34465e-08 1.8452 0.9226 0.9226C1.8452 -8.34465e-08 3.3306 0 6.3 0C9.2694 0 10.7548 -8.34465e-08 11.6774 0.9226C12.6 1.8452 12.6 3.3306 12.6 6.3C12.6 9.2694 12.6 10.7548 11.6774 11.6774C10.7548 12.6 9.2694 12.6 6.3 12.6C3.3306 12.6 1.8452 12.6 0.9226 11.6774C-8.34465e-08 10.7548 0 9.2694 0 6.3ZM15.4 21.7C15.4 18.7306 15.4 17.2452 16.3226 16.3226C17.2452 15.4 18.7306 15.4 21.7 15.4C24.6694 15.4 26.1548 15.4 27.0774 16.3226C28 17.2452 28 18.7306 28 21.7C28 24.6694 28 26.1548 27.0774 27.0774C26.1548 28 24.6694 28 21.7 28C18.7306 28 17.2452 28 16.3226 27.0774C15.4 26.1548 15.4 24.6694 15.4 21.7ZM0 21.7C0 18.7306 -8.34465e-08 17.2452 0.9226 16.3226C1.8452 15.4 3.3306 15.4 6.3 15.4C9.2694 15.4 10.7548 15.4 11.6774 16.3226C12.6 17.2452 12.6 18.7306 12.6 21.7C12.6 24.6694 12.6 26.1548 11.6774 27.0774C10.7548 28 9.2694 28 6.3 28C3.3306 28 1.8452 28 0.9226 27.0774C-8.34465e-08 26.1548 0 24.6694 0 21.7Z"
    fill="#888888"
  />
</svg>
