<svg viewBox="0 0 20 20" fill="none" xmlns="http://www.w3.org/2000/svg">
  <path
    fill-rule="evenodd"
    clip-rule="evenodd"
    d="M9.90871 0.00148762L9.93753 0H9.99727L10.0513 0.00318776L10.1108 0.0102008L10.1363 0.0144512L10.1807 0.0233769L10.2284 0.0359154C10.2748 0.048879 10.3195 0.0656678 10.3627 0.0854319L10.4093 0.108596L10.4536 0.133461L10.4913 0.157475L19.5132 6.16258C19.5674 6.19807 19.6183 6.23951 19.6651 6.2869L19.6895 6.3124L19.7079 6.33323L19.7348 6.36574L19.774 6.41887L19.7952 6.4516L19.8212 6.4958L19.842 6.53576L19.8613 6.57762C19.8926 6.64903 19.9142 6.72277 19.9265 6.79758L19.9278 6.80608C19.9348 6.85028 19.9386 6.89449 19.9392 6.9389V13.0488C19.9391 13.1614 19.9187 13.2732 19.8791 13.3786L19.8748 13.3886C19.8646 13.4152 19.8532 13.4413 19.8405 13.4668L19.8153 13.514L19.7787 13.5735L19.7604 13.5996L19.7274 13.6428L19.6971 13.6782L19.6668 13.7106C19.6183 13.7601 19.5651 13.8034 19.5079 13.8402L10.4973 19.8383C10.4057 19.9003 10.3024 19.9467 10.1918 19.9736L10.1333 19.9855L10.0786 19.9936L10.0074 19.9992L9.96973 20C9.95109 20 9.93265 19.9994 9.91443 19.9983L9.84558 19.9919L9.8032 19.9851C9.7096 19.9686 9.61908 19.9377 9.53477 19.8937L9.52926 19.8906C9.4967 19.8734 9.46522 19.8542 9.43498 19.8332L0.41695 13.8308C0.391798 13.8141 0.36754 13.796 0.34428 13.7766L0.305297 13.7426L0.267585 13.7057L0.218644 13.651L0.191102 13.6162L0.160806 13.5737C0.149609 13.557 0.13894 13.5399 0.128814 13.5225L0.100636 13.4704L0.0783902 13.423C0.0266382 13.3044 -5.28381e-05 13.1763 7.85288e-08 13.0469V6.95017C0.000423808 6.84178 0.0194924 6.73276 0.0578399 6.62799L0.0828385 6.567L0.0900425 6.55127L0.112711 6.50622L0.135382 6.46648L0.160806 6.4261L0.179873 6.39911L0.209534 6.36L0.241314 6.3226L0.273729 6.28796L0.307628 6.25545C0.346592 6.21954 0.388553 6.18704 0.433051 6.15833L9.43985 0.162788L9.48329 0.134736L9.53371 0.106684L9.5799 0.0841568L9.62375 0.0654553C9.69191 0.0383537 9.76303 0.0194495 9.83562 0.00913824L9.90871 0.00148762ZM2.64238 13.0396L5.45658 11.1406L9.02587 13.549V17.2887L2.64238 13.0396ZM10.9132 13.549L14.4825 11.1404L17.2967 13.0394L10.9132 17.2887V13.549ZM7.14769 9.99958L9.96973 8.09521L12.7918 9.99936L9.96973 11.9037L7.14769 9.99958ZM1.88645 11.2681V8.73127L3.76611 9.99958L1.88645 11.2681ZM16.1731 9.99958L18.0511 8.73234V11.267L16.1731 9.99958ZM2.64196 6.95952L9.02587 2.7096V6.45032L5.45679 8.85878L2.64196 6.95952ZM10.9132 6.45032V2.71045L17.2971 6.95952L14.4822 8.85878L10.9132 6.45032Z"
    fill="url(#paint0_linear_1_6)"
  />
  <defs>
    <linearGradient id="paint0_linear_1_6" x1="9.96962" y1="0" x2="9.96962" y2="20" gradientUnits="userSpaceOnUse">
      <stop stop-color="#FAFAFA" />
      <stop offset="1" stop-color="#888888" />
    </linearGradient>
  </defs>
</svg>
