<svg
  width="28"
  height="28"
  viewBox="0 0 28 28"
  fill="none"
  xmlns="http://www.w3.org/2000/svg"
>
  <path
    fill-rule="evenodd"
    clip-rule="evenodd"
    d="M11.2707 5.6V22.4C11.2707 24.36 11.2707 25.34 10.8899 26.089C10.554 26.7474 10.0184 27.2825 9.35968 27.6178C8.61068 28 7.63068 28 5.67068 28C3.71068 28 2.73068 28 1.98168 27.6178C1.32299 27.2825 0.787332 26.7474 0.451479 26.089C0.0706788 25.34 0.0706787 24.36 0.0706787 22.4V5.6C0.0706787 3.64 0.0706788 2.66 0.451479 1.911C0.787094 1.2521 1.32277 0.716415 1.98168 0.3808C2.73068 8.34465e-08 3.71068 0 5.67068 0C7.63068 0 8.61068 8.34465e-08 9.35968 0.3808C10.0186 0.716415 10.5543 1.2521 10.8899 1.911C11.2707 2.66 11.2707 3.64 11.2707 5.6ZM7.07068 24.85C7.34916 24.85 7.61623 24.7394 7.81314 24.5425C8.01005 24.3455 8.12068 24.0785 8.12068 23.8C8.12068 23.5215 8.01005 23.2544 7.81314 23.0575C7.61623 22.8606 7.34916 22.75 7.07068 22.75H4.27068C3.9922 22.75 3.72513 22.8606 3.52822 23.0575C3.3313 23.2544 3.22068 23.5215 3.22068 23.8C3.22068 24.0785 3.3313 24.3455 3.52822 24.5425C3.72513 24.7394 3.9922 24.85 4.27068 24.85H7.07068Z"
    fill="#888888"
  />
  <path
    d="M23.9547 12.0596L15.7815 20.5856C14.7595 21.651 14.2485 22.1844 13.8103 22.008C13.3707 21.8316 13.3707 21.0938 13.3707 19.6168V8.0836C13.3727 7.15956 13.7401 6.27382 14.3927 5.6196L15.8683 4.1426L16.4703 3.6806C17.8759 2.6068 18.5787 2.0706 19.3445 1.904C19.9748 1.76845 20.6303 1.80963 21.2387 2.023C21.9779 2.2806 22.6093 2.9022 23.8707 4.1426C25.2707 5.5426 25.9707 6.2426 26.2297 7.0434C26.4505 7.72662 26.4559 8.46123 26.2451 9.1476C25.9987 9.9526 25.3169 10.6554 23.9547 12.0596ZM15.1767 28H22.3307C24.2907 28 25.2707 28 26.0183 27.6178C26.677 27.2825 27.2126 26.7474 27.5485 26.089C27.9293 25.34 27.9293 24.36 27.9293 22.4C27.9293 20.44 27.9293 19.46 27.5485 18.711C27.2126 18.0526 26.677 17.5175 26.0183 17.1822C25.2707 16.8 24.2907 16.8 22.3307 16.8H22.0227L13.9013 24.9172C13.734 25.0767 13.6009 25.2685 13.5099 25.481C13.4189 25.6935 13.3721 25.9223 13.3721 26.1534C13.3721 27.1516 14.1799 28 15.1781 28"
    fill="#888888"
  />
</svg>
