<svg
  width="17"
  height="16"
  viewBox="0 0 17 16"
  fill="none"
  xmlns="http://www.w3.org/2000/svg"
>
  <path
    d="M8.10769 12.9281L14.0243 7.01153C13.0289 6.59572 12.1249 5.98852 11.3636 5.22439C10.5991 4.46285 9.99159 3.55857 9.57563 2.56288L3.65904 8.47947C3.19746 8.94106 2.96627 9.17225 2.76788 9.42664C2.5338 9.72701 2.3329 10.0518 2.1687 10.3954C2.0303 10.6866 1.92711 10.997 1.72071 11.6162L0.631153 14.8824C0.581006 15.032 0.573566 15.1926 0.609669 15.3461C0.645772 15.4997 0.723987 15.6401 0.835523 15.7516C0.947059 15.8632 1.08749 15.9414 1.24104 15.9775C1.39459 16.0136 1.55516 16.0062 1.70471 15.956L4.971 14.8664C5.59098 14.6601 5.90056 14.5569 6.19175 14.4185C6.53681 14.2542 6.85973 14.0545 7.16052 13.8193C7.41491 13.6209 7.6461 13.3897 8.10769 12.9281ZM15.6658 5.36998C16.2557 4.78006 16.5872 3.97995 16.5872 3.14566C16.5872 2.31138 16.2557 1.51127 15.6658 0.921344C15.0759 0.331417 14.2758 6.21588e-09 13.4415 0C12.6072 -6.21588e-09 11.8071 0.331417 11.2172 0.921344L10.5076 1.63092L10.538 1.71972C10.8876 2.7203 11.4598 3.62844 12.2115 4.37562C12.9811 5.14985 13.921 5.73337 14.9562 6.07956L15.6658 5.36998Z"
    fill="url(#paint0_linear_1_10)"
  />
  <defs>
    <linearGradient
      id="paint0_linear_1_10"
      x1="8.58716"
      y1="0"
      x2="8.58716"
      y2="16"
      gradientUnits="userSpaceOnUse"
    >
      <stop stop-color="#FAFAFA" />
      <stop offset="1" stop-color="#888888" />
    </linearGradient>
  </defs>
</svg>
