<svg
  width="15"
  height="16"
  viewBox="0 0 15 16"
  fill="none"
  xmlns="http://www.w3.org/2000/svg"
>
  <path
    fill-rule="evenodd"
    clip-rule="evenodd"
    d="M0.490022 2.87256C0.490023 1.76799 1.38545 0.872559 2.49002 0.872559H12.745C13.8495 0.872559 14.7449 1.76797 14.745 2.87253L14.7451 13.1273C14.7451 14.2318 13.8497 15.1273 12.7451 15.1273L2.49003 15.1274C1.38545 15.1274 0.490007 14.232 0.490008 13.1274L0.490022 2.87256ZM1.91552 12.702C1.91552 13.2543 2.36323 13.702 2.91552 13.702H12.3196C12.8719 13.702 13.3196 13.2543 13.3196 12.702V3.29803C13.3196 2.74574 12.8719 2.29803 12.3196 2.29803H2.91552C2.36323 2.29803 1.91552 2.74575 1.91552 3.29803V12.702Z"
    fill="url(#paint0_linear_1_13)"
  />
  <defs>
    <linearGradient
      id="paint0_linear_1_13"
      x1="7.61757"
      y1="0.872559"
      x2="7.61757"
      y2="15.1274"
      gradientUnits="userSpaceOnUse"
    >
      <stop stop-color="#FAFAFA" />
      <stop offset="1" stop-color="#666666" />
    </linearGradient>
  </defs>
</svg>
