<svg width="16" height="16" viewBox="0 0 16 16" fill="none" xmlns="http://www.w3.org/2000/svg">
  <path
    fill="url(#paint0_linear_1_66)"
    fill-rule="evenodd"
    clip-rule="evenodd"
    d="M12.4 0.6C12.5591 0.6 12.7117 0.663214 12.8243 0.775736C12.9368 0.888258 13 1.04087 13 1.2V3H14.8C14.9591 3 15.1117 3.06321 15.2243 3.17574C15.3368 3.28826 15.4 3.44087 15.4 3.6C15.4 3.75913 15.3368 3.91174 15.2243 4.02426C15.1117 4.13679 14.9591 4.2 14.8 4.2H13V6C13 6.15913 12.9368 6.31174 12.8243 6.42426C12.7117 6.53679 12.5591 6.6 12.4 6.6C12.2409 6.6 12.0883 6.53679 11.9757 6.42426C11.8632 6.31174 11.8 6.15913 11.8 6V4.2H10C9.84087 4.2 9.68826 4.13679 9.57574 4.02426C9.46321 3.91174 9.4 3.75913 9.4 3.6C9.4 3.44087 9.46321 3.28826 9.57574 3.17574C9.68826 3.06321 9.84087 3 10 3H11.8V1.2C11.8 1.04087 11.8632 0.888258 11.9757 0.775736C12.0883 0.663214 12.2409 0.6 12.4 0.6Z"
  />
  <path
    fill="url(#paint1_linear_1_66)"
    d="M0 3.6C0 1.9032 -4.76837e-08 1.0544 0.5272 0.5272C1.0544 -4.76837e-08 1.9032 0 3.6 0C5.2968 0 6.1456 -4.76837e-08 6.6728 0.5272C7.2 1.0544 7.2 1.9032 7.2 3.6C7.2 5.2968 7.2 6.1456 6.6728 6.6728C6.1456 7.2 5.2968 7.2 3.6 7.2C1.9032 7.2 1.0544 7.2 0.5272 6.6728C-4.76837e-08 6.1456 0 5.2968 0 3.6ZM8.8 12.4C8.8 10.7032 8.8 9.8544 9.3272 9.3272C9.8544 8.8 10.7032 8.8 12.4 8.8C14.0968 8.8 14.9456 8.8 15.4728 9.3272C16 9.8544 16 10.7032 16 12.4C16 14.0968 16 14.9456 15.4728 15.4728C14.9456 16 14.0968 16 12.4 16C10.7032 16 9.8544 16 9.3272 15.4728C8.8 14.9456 8.8 14.0968 8.8 12.4ZM0 12.4C0 10.7032 -4.76837e-08 9.8544 0.5272 9.3272C1.0544 8.8 1.9032 8.8 3.6 8.8C5.2968 8.8 6.1456 8.8 6.6728 9.3272C7.2 9.8544 7.2 10.7032 7.2 12.4C7.2 14.0968 7.2 14.9456 6.6728 15.4728C6.1456 16 5.2968 16 3.6 16C1.9032 16 1.0544 16 0.5272 15.4728C-4.76837e-08 14.9456 0 14.0968 0 12.4Z"
  />
  <defs>
    <linearGradient id="paint0_linear_1_66" x1="8" y1="0" x2="8" y2="16" gradientUnits="userSpaceOnUse">
      <stop stop-color="#FAFAFA" />
      <stop offset="1" stop-color="#888888" />
    </linearGradient>
    <linearGradient id="paint1_linear_1_66" x1="8" y1="0" x2="8" y2="16" gradientUnits="userSpaceOnUse">
      <stop stop-color="#FAFAFA" />
      <stop offset="1" stop-color="#888888" />
    </linearGradient>
  </defs>
</svg>
