<svg width="16" height="16" viewBox="0 0 16 16" fill="none" xmlns="http://www.w3.org/2000/svg">
  <path
    fill="url(#paint0_linear_1_60)"
    d="M0.799988 3.5088C0.799988 3.1216 1.07599 2.8072 1.41679 2.8072H3.54879C3.97199 2.7944 4.34559 2.488 4.48959 2.0352L4.51359 1.9552L4.60559 1.6424C4.66159 1.4504 4.71039 1.2824 4.77919 1.1328C5.04959 0.5416 5.55039 0.1312 6.12879 0.0264C6.27599 -5.96046e-09 6.43119 0 6.60879 0H9.39119C9.56959 0 9.72479 -5.96046e-09 9.87119 0.0264C10.4496 0.1312 10.9512 0.5416 11.2208 1.1328C11.2896 1.2824 11.3384 1.4496 11.3952 1.6424L11.4864 1.9552L11.5104 2.0352C11.6544 2.488 12.1024 2.7952 12.5264 2.8072H14.5824C14.924 2.8072 15.2 3.1216 15.2 3.5088C15.2 3.896 14.924 4.2104 14.5832 4.2104H1.41599C1.07599 4.2104 0.799988 3.896 0.799988 3.5088Z"
  />
  <path
    fill="url(#paint1_linear_1_60)"
    fill-rule="evenodd"
    clip-rule="evenodd"
    d="M7.67679 16H8.32319C10.5496 16 11.6624 16 12.3872 15.2912C13.1104 14.5824 13.184 13.42 13.332 11.0952L13.5456 7.7448C13.6256 6.4832 13.6656 5.852 13.3032 5.4528C12.94 5.0528 12.3272 5.0528 11.1008 5.0528H4.89919C3.67279 5.0528 3.05919 5.0528 2.69679 5.4528C2.33439 5.8528 2.37359 6.4832 2.45439 7.7448L2.66799 11.0952C2.81599 13.42 2.88959 14.5832 3.61359 15.2912C4.33759 16 5.45039 16 7.67679 16ZM6.59679 8.1512C6.56479 7.804 6.27039 7.5512 5.94079 7.5856C5.61039 7.62 5.37039 7.9296 5.40319 8.2768L5.80319 12.4872C5.83519 12.8344 6.12959 13.0872 6.45919 13.0528C6.78959 13.0184 7.02959 12.7088 6.99679 12.3616L6.59679 8.1512ZM10.06 7.5856C10.3896 7.62 10.6304 7.9296 10.5968 8.2768L10.1968 12.4872C10.1648 12.8344 9.86959 13.0872 9.54079 13.0528C9.21039 13.0184 8.97039 12.7088 9.00319 12.3616L9.40319 8.1512C9.43519 7.804 9.73119 7.5512 10.06 7.5856Z"
  />
  <defs>
    <linearGradient id="paint0_linear_1_60" x1="7.99999" y1="0" x2="7.99999" y2="16" gradientUnits="userSpaceOnUse">
      <stop stop-color="#FAFAFA" />
      <stop offset="1" stop-color="#888888" />
    </linearGradient>
    <linearGradient id="paint1_linear_1_60" x1="7.99999" y1="0" x2="7.99999" y2="16" gradientUnits="userSpaceOnUse">
      <stop stop-color="#FAFAFA" />
      <stop offset="1" stop-color="#888888" />
    </linearGradient>
  </defs>
</svg>
