<svg width="20" height="18" viewBox="0 0 20 18" fill="none" xmlns="http://www.w3.org/2000/svg">
  <path
    fill="url(#paint0_linear_1_62)"
    fill-rule="evenodd"
    clip-rule="evenodd"
    d="M9.99999 4.77C7.44494 4.77 5.37304 6.80779 5.37304 9.32305C5.37293 9.92284 5.49271 10.5166 5.72536 11.0694C5.95801 11.6223 6.29883 12.123 6.72778 12.5422C6.78879 12.6022 6.83725 12.6737 6.87033 12.7526C6.90341 12.8315 6.92045 12.9161 6.92045 13.0017C6.92045 13.0872 6.90341 13.1719 6.87033 13.2508C6.83725 13.3297 6.78879 13.4012 6.72778 13.4612C6.60286 13.583 6.43525 13.6512 6.26073 13.6512C6.08621 13.6512 5.9186 13.583 5.79367 13.4612C5.24171 12.9226 4.80312 12.279 4.50375 11.5683C4.20437 10.8576 4.05027 10.0942 4.05052 9.32305C4.05052 6.08968 6.71452 3.46832 9.99999 3.46832C13.2855 3.46832 15.9495 6.08968 15.9495 9.32305C15.9498 10.0944 15.7958 10.858 15.4964 11.5688C15.197 12.2797 14.7584 12.9234 14.2063 13.4621C14.0813 13.5843 13.9135 13.6527 13.7388 13.6527C13.564 13.6527 13.3962 13.5843 13.2713 13.4621C13.2101 13.4021 13.1615 13.3306 13.1284 13.2516C13.0952 13.1726 13.0781 13.0878 13.0781 13.0022C13.0781 12.9165 13.0952 12.8317 13.1284 12.7527C13.1615 12.6738 13.2101 12.6022 13.2713 12.5422C13.7002 12.123 14.041 11.6223 14.2737 11.0694C14.5063 10.5166 14.6261 9.92284 14.626 9.32305C14.626 6.80779 12.555 4.77 9.99999 4.77Z"
  />
  <path
    fill="url(#paint1_linear_1_62)"
    fill-rule="evenodd"
    clip-rule="evenodd"
    d="M9.99999 1.30074C5.4981 1.30074 1.84789 4.89221 1.84789 9.32305C1.84789 11.538 2.7602 13.5426 4.23525 14.9949C4.29627 15.0549 4.34473 15.1264 4.3778 15.2053C4.41088 15.2842 4.42792 15.3689 4.42792 15.4544C4.42792 15.54 4.41088 15.6247 4.3778 15.7035C4.34473 15.7824 4.29627 15.8539 4.23525 15.9139C4.11033 16.0358 3.94272 16.104 3.7682 16.104C3.59368 16.104 3.42607 16.0358 3.30115 15.9139C2.42303 15.0556 1.72524 14.0306 1.24873 12.899C0.772224 11.7673 0.526609 10.5519 0.526306 9.324C0.526306 4.17411 4.76767 0 9.99999 0C15.2323 0 19.4737 4.17411 19.4737 9.32211C19.4738 10.5505 19.2283 11.7664 18.7518 12.8986C18.2753 14.0308 17.5773 15.0563 16.6988 15.9148C16.5739 16.037 16.4061 16.1054 16.2313 16.1054C16.0566 16.1054 15.8887 16.037 15.7638 15.9148C15.7026 15.8549 15.654 15.7833 15.6209 15.7043C15.5877 15.6253 15.5706 15.5406 15.5706 15.4549C15.5706 15.3692 15.5877 15.2844 15.6209 15.2055C15.654 15.1265 15.7026 15.0549 15.7638 14.9949C16.5196 14.2563 17.1201 13.3741 17.5301 12.4C17.9401 11.426 18.1513 10.3799 18.1511 9.32305C18.1511 4.89221 14.5019 1.30074 9.99999 1.30074Z"
  />
  <path
    fill="url(#paint2_linear_1_62)"
    d="M8.39894 13.5891C9.12557 12.7592 9.48936 12.3442 9.93841 12.3177C9.97946 12.3152 10.0205 12.3152 10.0616 12.3177C10.5106 12.3442 10.8744 12.7592 11.601 13.5891C13.1831 15.3947 13.9742 16.2966 13.7525 17.0754C13.7336 17.1429 13.7102 17.208 13.6824 17.2705C13.3565 18 12.2377 18 9.99999 18C7.76231 18 6.64346 18 6.31757 17.2705C6.29066 17.2068 6.26725 17.1417 6.24746 17.0754C6.02578 16.2966 6.81589 15.3947 8.39799 13.5891M12.3684 9C12.3684 9.62814 12.1189 10.2306 11.6747 10.6747C11.2306 11.1189 10.6281 11.3684 9.99999 11.3684C9.37185 11.3684 8.76943 11.1189 8.32526 10.6747C7.8811 10.2306 7.63157 9.62814 7.63157 9C7.63157 8.37186 7.8811 7.76944 8.32526 7.32527C8.76943 6.88111 9.37185 6.63158 9.99999 6.63158C10.6281 6.63158 11.2306 6.88111 11.6747 7.32527C12.1189 7.76944 12.3684 8.37186 12.3684 9Z"
  />
  <defs>
    <linearGradient id="paint0_linear_1_62" x1="9.99999" y1="0" x2="9.99999" y2="18" gradientUnits="userSpaceOnUse">
      <stop stop-color="#FAFAFA" />
      <stop offset="1" stop-color="#888888" />
    </linearGradient>
    <linearGradient id="paint1_linear_1_62" x1="9.99999" y1="0" x2="9.99999" y2="18" gradientUnits="userSpaceOnUse">
      <stop stop-color="#FAFAFA" />
      <stop offset="1" stop-color="#888888" />
    </linearGradient>
    <linearGradient id="paint2_linear_1_62" x1="9.99999" y1="0" x2="9.99999" y2="18" gradientUnits="userSpaceOnUse">
      <stop stop-color="#FAFAFA" />
      <stop offset="1" stop-color="#888888" />
    </linearGradient>
  </defs>
</svg>
