<svg width="16" height="16" viewBox="0 0 16 16" fill="none" xmlns="http://www.w3.org/2000/svg">
  <path
    fill="url(#paint0_linear_1_72)"
    fill-rule="evenodd"
    clip-rule="evenodd"
    d="M4.62793 4.08789C4.76226 4.22206 4.94436 4.29742 5.13422 4.29742C5.32408 4.29742 5.50617 4.22206 5.64051 4.08789L7.28356 2.44484V10.2684C7.28356 10.4584 7.35904 10.6407 7.4934 10.775C7.62776 10.9094 7.80999 10.9849 8 10.9849C8.19002 10.9849 8.37225 10.9094 8.50661 10.775C8.64097 10.6407 8.71645 10.4584 8.71645 10.2684V2.44484L10.3595 4.08789C10.4251 4.15828 10.5042 4.21474 10.5921 4.2539C10.68 4.29305 10.7748 4.31411 10.871 4.31581C10.9672 4.3175 11.0628 4.29981 11.152 4.26377C11.2412 4.22774 11.3222 4.17411 11.3903 4.10608C11.4583 4.03804 11.5119 3.957 11.548 3.86779C11.584 3.77858 11.6017 3.68303 11.6 3.58683C11.5983 3.49064 11.5772 3.39576 11.5381 3.30788C11.4989 3.22 11.4425 3.1409 11.3721 3.07531L8.50629 0.209527C8.37196 0.0753602 8.18986 0 8 0C7.81014 0 7.62805 0.0753602 7.49371 0.209527L4.62793 3.07531C4.49376 3.20965 4.4184 3.39174 4.4184 3.5816C4.4184 3.77146 4.49376 3.95356 4.62793 4.08789Z"
  />
  <path
    fill="url(#paint1_linear_1_72)"
    d="M8 16C10.0268 16 11.9706 15.1949 13.4038 13.7617C14.8369 12.3285 15.6421 10.3847 15.6421 8.35791H12.0599C11.1591 8.35791 10.7091 8.35791 10.4292 8.6378C10.1493 8.91769 10.1493 9.36762 10.1493 10.2684C10.1493 10.8385 9.92289 11.3852 9.51981 11.7882C9.11673 12.1913 8.57004 12.4178 8 12.4178C7.42996 12.4178 6.88327 12.1913 6.48019 11.7882C6.07711 11.3852 5.85066 10.8385 5.85066 10.2684C5.85066 9.36762 5.85066 8.91769 5.57077 8.6378C5.29088 8.35791 4.84095 8.35791 3.94014 8.35791H0.35791C0.35791 10.3847 1.16306 12.3285 2.59623 13.7617C4.0294 15.1949 5.97319 16 8 16Z"
  />
  <defs>
    <linearGradient id="paint0_linear_1_72" x1="8" y1="0" x2="8" y2="16" gradientUnits="userSpaceOnUse">
      <stop stop-color="#FAFAFA" />
      <stop offset="1" stop-color="#888888" />
    </linearGradient>
    <linearGradient id="paint1_linear_1_72" x1="8" y1="0" x2="8" y2="16" gradientUnits="userSpaceOnUse">
      <stop stop-color="#FAFAFA" />
      <stop offset="1" stop-color="#888888" />
    </linearGradient>
  </defs>
</svg>
