<svg width="16" height="16" viewBox="0 0 16 16" fill="none" xmlns="http://www.w3.org/2000/svg">
  <path
    fill="#FAFAFA"
    d="M11.8362 1.06561C12.7971 1.06561 13.7186 1.44732 14.398 2.12677C15.0775 2.80623 15.4592 3.72776 15.4592 4.68866C15.4592 5.64955 15.0775 6.57109 14.398 7.25054C13.7186 7.93 12.7971 8.31171 11.8362 8.31171H4.16382C3.54207 8.31171 2.94578 8.5587 2.50613 8.99835C2.06649 9.43799 1.8195 10.0343 1.8195 10.656C1.8195 11.2778 2.06649 11.8741 2.50613 12.3137C2.94578 12.7534 3.54207 13.0004 4.16382 13.0004H13.2769L12.6631 12.3866C12.6003 12.328 12.5499 12.2575 12.5149 12.179C12.48 12.1006 12.4612 12.0159 12.4597 11.9301C12.4582 11.8442 12.474 11.759 12.5061 11.6794C12.5383 11.5997 12.5861 11.5274 12.6468 11.4667C12.7076 11.406 12.7799 11.3581 12.8595 11.326C12.9391 11.2938 13.0244 11.278 13.1102 11.2795C13.1961 11.2811 13.2807 11.2999 13.3592 11.3348C13.4376 11.3697 13.5082 11.4201 13.5667 11.4829L15.2717 13.1879C15.3914 13.3078 15.4587 13.4703 15.4587 13.6397C15.4587 13.8092 15.3914 13.9717 15.2717 14.0915L13.5667 15.7965C13.5082 15.8593 13.4376 15.9097 13.3592 15.9447C13.2807 15.9796 13.1961 15.9984 13.1102 15.9999C13.0244 16.0014 12.9391 15.9856 12.8595 15.9535C12.7799 15.9213 12.7076 15.8734 12.6468 15.8127C12.5861 15.752 12.5383 15.6797 12.5061 15.6001C12.474 15.5205 12.4582 15.4352 12.4597 15.3494C12.4612 15.2635 12.48 15.1788 12.5149 15.1004C12.5499 15.022 12.6003 14.9514 12.6631 14.8929L13.2769 14.2791H4.16382C3.20293 14.2791 2.28139 13.8974 1.60194 13.2179C0.922485 12.5385 0.540771 11.6169 0.540771 10.656C0.540771 9.69514 0.922485 8.77361 1.60194 8.09415C2.28139 7.4147 3.20293 7.03298 4.16382 7.03298H11.8362C12.4579 7.03298 13.0542 6.78599 13.4939 6.34635C13.9335 5.9067 14.1805 5.31041 14.1805 4.68866C14.1805 4.0669 13.9335 3.47061 13.4939 3.03097C13.0542 2.59132 12.4579 2.34433 11.8362 2.34433H4.46645C4.31808 2.71112 4.04675 3.01489 3.69897 3.20358C3.35119 3.39227 2.94861 3.45412 2.56023 3.37854C2.17185 3.30296 1.82184 3.09465 1.5702 2.78932C1.31856 2.48399 1.18094 2.10064 1.18094 1.70497C1.18094 1.3093 1.31856 0.92595 1.5702 0.620616C1.82184 0.315283 2.17185 0.106976 2.56023 0.0313969C2.94861 -0.0441825 3.35119 0.0176708 3.69897 0.206357C4.04675 0.395042 4.31808 0.698812 4.46645 1.06561H11.8362Z"
  />
</svg>
