<svg width="14" height="16" viewBox="0 0 14 16" fill="none" xmlns="http://www.w3.org/2000/svg">
  <path
    fill="url(#paint0_linear_1_64)"
    fill-rule="evenodd"
    clip-rule="evenodd"
    d="M8.4424 2.66641C8.4424 1.19441 9.6424 9.71722e-06 11.1208 9.71722e-06C11.4718 -0.000936934 11.8196 0.0672923 12.1442 0.200799C12.4689 0.334305 12.7641 0.530472 13.0129 0.778091C13.2617 1.02571 13.4593 1.31993 13.5943 1.64393C13.7294 1.96794 13.7993 2.31538 13.8 2.66641C13.8 4.13921 12.6 5.3336 11.1208 5.3336C10.7661 5.33386 10.4149 5.26371 10.0875 5.12721C9.76009 4.9907 9.46306 4.79057 9.2136 4.5384L5.50561 7.0632C5.60868 7.57761 5.55804 8.11098 5.36001 8.5968L9.4256 11.2688C9.90459 10.8785 10.5037 10.6657 11.1216 10.6664C11.4726 10.6656 11.8204 10.7339 12.145 10.8675C12.4696 11.0011 12.7647 11.1974 13.0134 11.445C13.2622 11.6927 13.4597 11.987 13.5946 12.3111C13.7296 12.6351 13.7994 12.9826 13.8 13.3336C13.8 14.8056 12.6 16 11.1208 16C10.7698 16.0008 10.4222 15.9325 10.0976 15.799C9.77304 15.6654 9.47798 15.4692 9.22925 15.2216C8.98053 14.974 8.78302 14.6798 8.64802 14.3559C8.51301 14.0319 8.44314 13.6846 8.4424 13.3336C8.44178 12.9597 8.52059 12.5899 8.6736 12.2488L4.64001 9.6C4.15139 10.0245 3.52566 10.2578 2.87841 10.2568C2.52738 10.2576 2.17963 10.1893 1.85502 10.0557C1.53042 9.9221 1.23531 9.72585 0.986581 9.47815C0.737847 9.23046 0.540357 8.93618 0.405394 8.61214C0.270432 8.28809 0.200642 7.94063 0.200012 7.5896C0.200747 7.23864 0.270614 6.89127 0.405624 6.56731C0.540633 6.24336 0.73814 5.94918 0.986863 5.70157C1.23559 5.45396 1.53065 5.25778 1.85521 5.12422C2.17976 4.99067 2.52745 4.92236 2.87841 4.9232C3.72961 4.9232 4.48641 5.3176 4.97681 5.932L8.5712 3.48481C8.48547 3.22048 8.442 2.94429 8.4424 2.66641Z"
  />
  <defs>
    <linearGradient id="paint0_linear_1_64" x1="7.00001" y1="0" x2="7.00001" y2="16" gradientUnits="userSpaceOnUse">
      <stop stop-color="#FAFAFA" />
      <stop offset="1" stop-color="#888888" />
    </linearGradient>
  </defs>
</svg>
