<svg viewBox="0 0 28 6" fill="none" xmlns="http://www.w3.org/2000/svg">
  <path
    fill="url(#paint0_linear_1_156)"
    fill-rule="evenodd"
    clip-rule="evenodd"
    d="M2.8 5.80005C3.54261 5.80005 4.2548 5.50505 4.7799 4.97995C5.305 4.45484 5.6 3.74265 5.6 3.00005C5.6 2.25744 5.305 1.54525 4.7799 1.02015C4.2548 0.495049 3.54261 0.20005 2.8 0.20005C2.05739 0.20005 1.3452 0.495049 0.820101 1.02015C0.295 1.54525 -1.22389e-07 2.25744 -1.22389e-07 3.00005C-1.22389e-07 3.74265 0.295 4.45484 0.820101 4.97995C1.3452 5.50505 2.05739 5.80005 2.8 5.80005ZM14 5.80005C14.7426 5.80005 15.4548 5.50505 15.9799 4.97995C16.505 4.45484 16.8 3.74265 16.8 3.00005C16.8 2.25744 16.505 1.54525 15.9799 1.02015C15.4548 0.495049 14.7426 0.200049 14 0.200049C13.2574 0.200049 12.5452 0.495049 12.0201 1.02015C11.495 1.54525 11.2 2.25744 11.2 3.00005C11.2 3.74265 11.495 4.45484 12.0201 4.97995C12.5452 5.50505 13.2574 5.80005 14 5.80005ZM25.2 5.80005C25.9426 5.80005 26.6548 5.50505 27.1799 4.97995C27.705 4.45484 28 3.74265 28 3.00005C28 2.25744 27.705 1.54525 27.1799 1.02015C26.6548 0.495049 25.9426 0.200049 25.2 0.200049C24.4574 0.200049 23.7452 0.495049 23.2201 1.02015C22.695 1.54525 22.4 2.25744 22.4 3.00005C22.4 3.74265 22.695 4.45484 23.2201 4.97995C23.7452 5.50505 24.4574 5.80005 25.2 5.80005Z"
  />
  <defs>
    <linearGradient id="paint0_linear_1_156" x1="14" y1="0.200049" x2="14" y2="5.80005" gradientUnits="userSpaceOnUse">
      <stop stop-color="#FAFAFA" />
      <stop offset="1" stop-color="#666666" />
    </linearGradient>
  </defs>
</svg>
