<svg viewBox="0 0 20 20" fill="none" xmlns="http://www.w3.org/2000/svg">
  <path
    fill-rule="evenodd"
    clip-rule="evenodd"
    d="M8.84724 19.9601C3.86724 19.3881 0.000244141 15.1591 0.000244141 10.0261C0.000244141 4.50306 4.47724 0.026062 10.0002 0.026062C15.5232 0.026062 20.0002 4.50306 20.0002 10.0261C20.0002 15.1831 16.7172 14.7591 13.9142 14.3961C12.2962 14.1871 10.8392 13.9991 10.2622 14.9141C9.86724 15.5401 10.2942 16.3201 10.8172 16.8431C10.9726 16.9984 11.0958 17.1828 11.1799 17.3858C11.264 17.5888 11.3073 17.8064 11.3073 18.0261C11.3073 18.2458 11.264 18.4633 11.1799 18.6663C11.0958 18.8693 10.9726 19.0537 10.8172 19.2091C10.2942 19.7321 9.58224 20.0451 8.84724 19.9601ZM9.08524 5.02606C9.08524 5.42389 8.92721 5.80542 8.6459 6.08672C8.3646 6.36803 7.98307 6.52606 7.58524 6.52606C7.18742 6.52606 6.80589 6.36803 6.52458 6.08672C6.24328 5.80542 6.08524 5.42389 6.08524 5.02606C6.08524 4.62824 6.24328 4.24671 6.52458 3.9654C6.80589 3.6841 7.18742 3.52606 7.58524 3.52606C7.98307 3.52606 8.3646 3.6841 8.6459 3.9654C8.92721 4.24671 9.08524 4.62824 9.08524 5.02606ZM4.50024 11.0261C4.89807 11.0261 5.2796 10.868 5.5609 10.5867C5.84221 10.3054 6.00024 9.92389 6.00024 9.52606C6.00024 9.12824 5.84221 8.74671 5.5609 8.4654C5.2796 8.1841 4.89807 8.02606 4.50024 8.02606C4.10242 8.02606 3.72089 8.1841 3.43958 8.4654C3.15828 8.74671 3.00024 9.12824 3.00024 9.52606C3.00024 9.92389 3.15828 10.3054 3.43958 10.5867C3.72089 10.868 4.10242 11.0261 4.50024 11.0261ZM15.5002 11.0261C15.8981 11.0261 16.2796 10.868 16.5609 10.5867C16.8422 10.3054 17.0002 9.92389 17.0002 9.52606C17.0002 9.12824 16.8422 8.74671 16.5609 8.4654C16.2796 8.1841 15.8981 8.02606 15.5002 8.02606C15.1024 8.02606 14.7209 8.1841 14.4396 8.4654C14.1583 8.74671 14.0002 9.12824 14.0002 9.52606C14.0002 9.92389 14.1583 10.3054 14.4396 10.5867C14.7209 10.868 15.1024 11.0261 15.5002 11.0261ZM12.5002 6.52606C12.6972 6.52606 12.8923 6.48726 13.0743 6.41188C13.2563 6.3365 13.4216 6.22601 13.5609 6.08672C13.7002 5.94743 13.8107 5.78208 13.8861 5.60009C13.9614 5.4181 14.0002 5.22304 14.0002 5.02606C14.0002 4.82908 13.9614 4.63403 13.8861 4.45204C13.8107 4.27005 13.7002 4.10469 13.5609 3.9654C13.4216 3.82611 13.2563 3.71562 13.0743 3.64024C12.8923 3.56486 12.6972 3.52606 12.5002 3.52606C12.1024 3.52606 11.7209 3.6841 11.4396 3.9654C11.1583 4.24671 11.0002 4.62824 11.0002 5.02606C11.0002 5.42389 11.1583 5.80542 11.4396 6.08672C11.7209 6.36803 12.1024 6.52606 12.5002 6.52606Z"
    fill="#FAFAFA"
  />
</svg>
