<svg viewBox="0 0 20 20" fill="none" xmlns="http://www.w3.org/2000/svg">
  <path
    fill-rule="evenodd"
    clip-rule="evenodd"
    d="M0.123245 10.8159C0.410245 11.8189 1.18325 12.5909 2.72825 14.1359L4.55825 15.9659C7.24825 18.6569 8.59225 19.9999 10.2622 19.9999C11.9332 19.9999 13.2772 18.6559 15.9662 15.9669C18.6562 13.2769 20.0002 11.9329 20.0002 10.2619C20.0002 8.59193 18.6562 7.24693 15.9672 4.55793L14.1372 2.72793C12.5912 1.18293 11.8192 0.409927 10.8162 0.122927C9.81324 -0.165073 8.74825 0.0809273 6.61925 0.572927L5.39125 0.855927C3.59925 1.26893 2.70325 1.47593 2.08925 2.08893C1.47525 2.70193 1.27025 3.59993 0.856245 5.39093L0.572245 6.61893C0.0812454 8.74893 -0.163755 9.81293 0.123245 10.8159ZM8.12224 5.27093C8.31512 5.45693 8.469 5.67951 8.5749 5.92564C8.6808 6.17178 8.73659 6.43656 8.73902 6.7045C8.74145 6.97244 8.69046 7.23818 8.58904 7.4862C8.48763 7.73422 8.33781 7.95955 8.14833 8.14902C7.95886 8.33849 7.73354 8.48831 7.48552 8.58973C7.2375 8.69115 6.97176 8.74213 6.70382 8.7397C6.43588 8.73727 6.1711 8.68148 5.92496 8.57558C5.67882 8.46968 5.45625 8.3158 5.27025 8.12293C4.9033 7.74243 4.70039 7.23309 4.70518 6.7045C4.70998 6.17591 4.92208 5.67033 5.29587 5.29655C5.66965 4.92277 6.17523 4.71066 6.70382 4.70587C7.23241 4.70107 7.74175 4.90398 8.12224 5.27093ZM17.0502 10.0509L10.0712 17.0309C9.92973 17.1675 9.74024 17.243 9.54359 17.2412C9.34695 17.2394 9.15887 17.1604 9.01988 17.0213C8.88089 16.8822 8.8021 16.694 8.80049 16.4974C8.79887 16.3007 8.87456 16.1113 9.01124 15.9699L15.9892 8.98993C16.1299 8.84923 16.3208 8.77019 16.5197 8.77019C16.7187 8.77019 16.9095 8.84923 17.0502 8.98993C17.1909 9.13062 17.27 9.32145 17.27 9.52043C17.27 9.7194 17.1909 9.91023 17.0502 10.0509Z"
    fill="url(#paint0_linear_1_37)"
  />
  <defs>
    <linearGradient id="paint0_linear_1_37" x1="10.0001" y1="6.10352e-05" x2="10.0001" y2="19.9999" gradientUnits="userSpaceOnUse">
      <stop stop-color="#FAFAFA" />
      <stop offset="1" stop-color="#888888" />
    </linearGradient>
  </defs>
</svg>
