<svg viewBox="0 0 20 20" fill="none" xmlns="http://www.w3.org/2000/svg">
  <path
    d="M7.00444 20C7.55595 20 8.00304 19.546 8.00304 18.9945C8.00304 18.449 7.56087 18 7.01542 18C6.70785 17.994 4.00863 17.827 4.00863 14C4.00863 12.007 3.34456 10.754 2.50873 10C3.34456 9.246 4.00863 7.993 4.00863 6C4.00863 2.173 6.70785 2.006 7.00444 2C7.55595 2 8.00304 1.55221 8.00304 1.0007C8.00304 0.448415 7.55473 0 7.00244 0C5.27586 0.004 2.01143 1.264 2.01143 6C2.01143 7.61295 1.45539 8.3598 0.919782 8.70507C0.463055 8.99949 0.00327819 9.43404 0.0070766 9.97743L0.00728325 10.007C0.0111247 10.5565 0.487417 11.007 0.942728 11.3147C1.46454 11.6674 2.01143 12.4151 2.01143 14C2.01143 18.736 5.27586 19.996 7.00444 20ZM19.9932 9.99301C19.9894 9.44347 19.5131 8.99303 19.0578 8.68529C18.536 8.33261 17.9891 7.5849 17.9891 6C17.9891 1.264 14.7246 0.004 12.996 0C12.4445 0 11.9974 0.454018 11.9974 1.00553C11.9974 1.55098 12.4396 2 12.9851 2C13.2926 2.006 15.9919 2.173 15.9919 6C15.9919 7.993 16.6559 9.246 17.4918 10C16.6559 10.754 15.9919 12.007 15.9919 14C15.9919 17.827 13.2926 17.994 12.996 18C12.4445 18 11.9974 18.4478 11.9974 18.9993C11.9974 19.5516 12.4458 20 12.998 20C14.7246 19.996 17.9891 18.736 17.9891 14C17.9891 12.3871 18.5451 11.6402 19.0807 11.2949C19.5374 11.0005 19.9972 10.566 19.9934 10.0226L19.9932 9.99301Z"
    fill="url(#paint0_linear_1_41)"
  />
  <defs>
    <linearGradient
      id="paint0_linear_1_41"
      x1="10.0002"
      y1="0"
      x2="10.0002"
      y2="20"
      gradientUnits="userSpaceOnUse"
    >
      <stop stop-color="#FAFAFA" />
      <stop offset="1" stop-color="#888888" />
    </linearGradient>
  </defs>
</svg>
