<svg viewBox="0 0 16 16" fill="none" xmlns="http://www.w3.org/2000/svg">
  <path
    fill-rule="evenodd"
    clip-rule="evenodd"
    d="M9.40469 0.1216C9.11259 -3.57628e-08 8.74154 0 8.00022 0C7.25891 0 6.88865 -3.57628e-08 6.59576 0.1216C6.40304 0.201396 6.22779 0.319025 6.08011 0.467717C5.93243 0.616409 5.81522 0.793229 5.73523 0.988C5.66102 1.1664 5.6326 1.3752 5.62076 1.6784C5.61512 1.898 5.5545 2.11255 5.44457 2.30188C5.33465 2.49122 5.17903 2.64914 4.99234 2.7608C4.80188 2.86808 4.58777 2.92492 4.36986 2.92603C4.15195 2.92715 3.93729 2.87252 3.74576 2.7672C3.47892 2.6248 3.2855 2.5464 3.09445 2.5208C2.67649 2.46554 2.25387 2.57936 1.91814 2.8376C1.66709 3.0312 1.48156 3.3544 1.1113 4C0.740248 4.6456 0.555512 4.968 0.51367 5.284C0.458407 5.7048 0.572091 6.1304 0.829459 6.4672C0.9463 6.6208 1.1113 6.7496 1.3663 6.9112C1.74288 7.1488 1.98445 7.5536 1.98445 8C1.98445 8.4464 1.74288 8.8512 1.36709 9.088C1.1113 9.2504 0.9463 9.3792 0.828669 9.5328C0.702011 9.69937 0.608998 9.8896 0.554948 10.0926C0.500898 10.2957 0.486871 10.5075 0.51367 10.716C0.555512 11.0312 0.740248 11.3544 1.1113 12C1.48235 12.6456 1.66709 12.968 1.91814 13.1624C2.25287 13.4208 2.67603 13.5344 3.09445 13.4792C3.2855 13.4536 3.47892 13.3752 3.74576 13.2328C3.93739 13.1273 4.1522 13.0726 4.37026 13.0737C4.58832 13.0749 4.80257 13.1318 4.99313 13.2392C5.37681 13.4632 5.60418 13.8752 5.62076 14.3216C5.6326 14.6256 5.66102 14.8336 5.73523 15.012C5.89628 15.404 6.20576 15.716 6.59576 15.8784C6.88786 16 7.25891 16 8.00022 16C8.74154 16 9.11259 16 9.40469 15.8784C9.59741 15.7986 9.77266 15.681 9.92034 15.5323C10.068 15.3836 10.1852 15.2068 10.2652 15.012C10.3394 14.8336 10.3678 14.6256 10.3797 14.3216C10.3955 13.8752 10.6236 13.4624 11.0081 13.2392C11.1986 13.1319 11.4127 13.0751 11.6306 13.074C11.8485 13.0728 12.0632 13.1275 12.2547 13.2328C12.5215 13.3752 12.7149 13.4536 12.906 13.4792C13.3244 13.5352 13.7476 13.4208 14.0823 13.1624C14.3334 12.9688 14.5189 12.6456 14.8891 12C15.2602 11.3544 15.4449 11.032 15.4868 10.716C15.5135 10.5074 15.4993 10.2956 15.4451 10.0925C15.3909 9.88952 15.2978 9.69931 15.171 9.5328C15.0541 9.3792 14.8891 9.2504 14.6341 9.0888C14.2576 8.8512 14.016 8.4464 14.016 8C14.016 7.5536 14.2576 7.1488 14.6334 6.912C14.8891 6.7496 15.0541 6.6208 15.1718 6.4672C15.2984 6.30063 15.3914 6.1104 15.4455 5.90737C15.4995 5.70435 15.5136 5.49252 15.4868 5.284C15.4449 4.9688 15.2602 4.6456 14.8891 4C14.5181 3.3544 14.3334 3.032 14.0823 2.8376C13.7466 2.57936 13.324 2.46554 12.906 2.5208C12.7149 2.5464 12.5215 2.6248 12.2547 2.7672C12.0631 2.87266 11.8483 2.92737 11.6302 2.92625C11.4121 2.92514 11.1979 2.86822 11.0073 2.7608C10.8208 2.64904 10.6653 2.49108 10.5555 2.30175C10.4458 2.11242 10.3852 1.89792 10.3797 1.6784C10.3678 1.3744 10.3394 1.1664 10.2652 0.988C10.1852 0.793229 10.068 0.616409 9.92034 0.467717C9.77266 0.319025 9.59741 0.201396 9.40469 0.1216ZM8.00022 10.4C9.31864 10.4 10.3868 9.3256 10.3868 8C10.3868 6.6744 9.31785 5.6 8.00022 5.6C6.6826 5.6 5.61365 6.6744 5.61365 8C5.61365 9.3256 6.6826 10.4 8.00022 10.4Z"
    fill="#FAFAFA"
  />
</svg>
