<svg width="16" height="16" viewBox="0 0 16 16" fill="none" xmlns="http://www.w3.org/2000/svg">
  <path
    fill="currentColor"
    d="M5.20819 0H10.7921C10.9777 0 11.1201 8.41916e-08 11.2449 0.0120001C12.1313 0.0992001 12.8569 0.632 13.1649 1.3496H2.83542C3.14342 0.632 3.86901 0.0992001 4.7554 0.0120001C4.8786 8.41916e-08 5.02099 0 5.20819 0ZM3.44822 2.1784C2.33623 2.1784 1.42424 2.8504 1.12025 3.7416L1.10105 3.7976C1.41944 3.7016 1.75144 3.6376 2.08663 3.5952C2.95062 3.484 4.04341 3.484 5.31219 3.484H10.8257C12.0945 3.484 13.1865 3.484 14.0513 3.5952C14.3873 3.6384 14.7185 3.7008 15.0369 3.7976L15.0185 3.7416C14.7145 2.8504 13.8025 2.1784 12.6897 2.1784H3.44822Z"
  />
  <path
    fill="currentColor"
    fill-rule="evenodd"
    clip-rule="evenodd"
    d="M5.33779 4.4336H10.6625C13.3617 4.4336 14.7121 4.4336 15.4704 5.2232C16.2288 6.0128 16.0496 7.232 15.6928 9.6712L15.3553 11.9848C15.0753 13.8976 14.9353 14.8544 14.2177 15.4272C13.5001 16 12.4417 16 10.3241 16H5.67618C3.55941 16 2.50023 16 1.78264 15.4272C1.06505 14.8544 0.925051 13.8976 0.645054 11.9848L0.307459 9.672C-0.0501359 7.232 -0.228534 6.0128 0.529856 5.2232C1.28825 4.4336 2.63863 4.4336 5.33779 4.4336ZM4.8002 12.8C4.8002 12.4688 5.09859 12.2 5.46659 12.2H10.5337C10.9017 12.2 11.2001 12.4688 11.2001 12.8C11.2001 13.1312 10.9017 13.4 10.5337 13.4H5.46659C5.09859 13.4 4.8002 13.1312 4.8002 12.8Z"
  />
</svg>
