<svg width="16" height="16" viewBox="0 0 16 16" fill="none" xmlns="http://www.w3.org/2000/svg">
  <path
    fill="currentColor"
    d="M0 12.4C0 10.7032 -4.76837e-08 9.8544 0.5272 9.3272C1.0544 8.8 1.9032 8.8 3.6 8.8C5.2968 8.8 6.1456 8.8 6.6728 9.3272C7.2 9.8544 7.2 10.7032 7.2 12.4C7.2 14.0968 7.2 14.9456 6.6728 15.4728C6.1456 16 5.2968 16 3.6 16C1.9032 16 1.0544 16 0.5272 15.4728C-4.76837e-08 14.9456 0 14.0968 0 12.4ZM8.8 3.6C8.8 1.9032 8.8 1.0544 9.3272 0.5272C9.8544 -4.76837e-08 10.7032 0 12.4 0C14.0968 0 14.9456 -4.76837e-08 15.4728 0.5272C16 1.0544 16 1.9032 16 3.6C16 5.2968 16 6.1456 15.4728 6.6728C14.9456 7.2 14.0968 7.2 12.4 7.2C10.7032 7.2 9.8544 7.2 9.3272 6.6728C8.8 6.1456 8.8 5.2968 8.8 3.6Z"
  />
  <path
    fill="currentColor"
    d="M16 12.4C16 14.3882 14.3882 16 12.4 16C10.4118 16 8.8 14.3882 8.8 12.4C8.8 10.4118 10.4118 8.8 12.4 8.8C14.3882 8.8 16 10.4118 16 12.4Z"
  />
  <path
    fill="currentColor"
    d="M7.2 3.6C7.2 5.58823 5.58823 7.2 3.6 7.2C1.61177 7.2 0 5.58823 0 3.6C0 1.61177 1.61177 0 3.6 0C5.58823 0 7.2 1.61177 7.2 3.6Z"
  />
</svg>
