<svg width="13" height="16" viewBox="0 0 13 16" fill="none" xmlns="http://www.w3.org/2000/svg">
  <path
    fill="currentColor"
    fill-rule="evenodd"
    clip-rule="evenodd"
    d="M1.8168 0.0896C1.1688 0.1744 0.8264 0.3304 0.5816 0.5696C0.3376 0.8096 0.1784 1.1456 0.0911999 1.78C0.00159987 2.4336 0 3.2992 0 4.54V11.396C0.316782 11.1797 0.66826 11.0193 1.0392 10.9216C1.4616 10.8104 1.9544 10.8104 2.6768 10.8112H12.8V4.5408C12.8 3.2992 12.7984 2.4336 12.7088 1.78C12.6216 1.1456 12.4624 0.8096 12.2184 0.5696C11.9736 0.3304 11.6312 0.1744 10.9832 0.0896C10.316 0.00159999 9.4328 0 8.1656 0H4.6344C3.3672 0 2.484 0.00159999 1.8168 0.0896ZM2.2072 3.676C2.2072 3.3176 2.5032 3.0272 2.8688 3.0272H9.9312C10.1048 3.02571 10.2719 3.09306 10.3959 3.21452C10.5199 3.33598 10.5907 3.50163 10.5928 3.6752C10.5909 3.84891 10.5202 4.01476 10.3961 4.13639C10.2721 4.25802 10.1049 4.32549 9.9312 4.324H2.8688C2.69523 4.32549 2.52814 4.25814 2.40413 4.13668C2.28012 4.01522 2.20931 3.84957 2.2072 3.676ZM2.8688 6.0544C2.69523 6.05291 2.52814 6.12026 2.40413 6.24172C2.28012 6.36318 2.20931 6.52883 2.2072 6.7024C2.2072 7.0608 2.5032 7.3512 2.8688 7.3512H7.2824C7.45611 7.35291 7.62341 7.28564 7.74759 7.16416C7.87177 7.04268 7.94269 6.87691 7.9448 6.7032C7.9429 6.52935 7.87207 6.36337 7.74787 6.24172C7.62366 6.12007 7.45625 6.05269 7.2824 6.0544H2.8688Z"
  />
  <path
    fill="currentColor"
    d="M3.752 12.108H2.7784C1.9152 12.108 1.6136 12.1136 1.3816 12.1744C1.07249 12.254 0.787393 12.4076 0.550881 12.622C0.314369 12.8363 0.133544 13.105 0.0240002 13.4048C0.0362668 13.7093 0.0586665 13.9811 0.0911999 14.22C0.1784 14.8544 0.3376 15.1904 0.5816 15.4304C0.8264 15.6696 1.1688 15.8256 1.8168 15.9104C2.484 15.9984 3.3672 16 4.6344 16H8.1656C9.4328 16 10.316 15.9984 10.9832 15.9112C11.6312 15.8256 11.9736 15.6696 12.2184 15.4304C12.4624 15.1904 12.6216 14.8544 12.7088 14.22C12.7824 13.6872 12.7968 13.012 12.7992 12.108H7.2824V14.5136C7.2824 14.752 7.2824 14.8712 7.1992 14.9192C7.1152 14.9672 7.0008 14.9136 6.772 14.8072L5.6752 14.2968C5.5976 14.2608 5.5592 14.2432 5.5176 14.2432C5.476 14.2432 5.4368 14.2608 5.3592 14.2968L4.2632 14.8072C4.0336 14.9136 3.9192 14.9672 3.8352 14.9192C3.752 14.8712 3.752 14.7512 3.752 14.5136V12.108Z"
  />
</svg>
