<svg width="16" height="16" viewBox="0 0 16 16" fill="none" xmlns="http://www.w3.org/2000/svg">
  <path
    fill="currentColor"
    fill-rule="evenodd"
    clip-rule="evenodd"
    d="M7.0776 15.9889C3.0936 15.5301 0 12.138 0 8.02091C0 3.59096 3.5816 0 8 0C12.4184 0 16 3.59096 16 8.02091C16 12.1573 13.3736 11.8172 11.1312 11.5261C9.8368 11.3584 8.6712 11.2076 8.2096 11.9415C7.8936 12.4436 8.2352 13.0693 8.6536 13.4888C8.77788 13.6134 8.87647 13.7613 8.94374 13.9241C9.011 14.0869 9.04562 14.2614 9.04562 14.4376C9.04562 14.6139 9.011 14.7884 8.94374 14.9512C8.87647 15.114 8.77788 15.2619 8.6536 15.3865C8.2352 15.806 7.6656 16.0571 7.0776 15.9889ZM7.268 4.01046C7.268 4.32955 7.14157 4.63557 6.91653 4.8612C6.69148 5.08683 6.38626 5.21359 6.068 5.21359C5.74974 5.21359 5.44452 5.08683 5.21947 4.8612C4.99443 4.63557 4.868 4.32955 4.868 4.01046C4.868 3.69136 4.99443 3.38534 5.21947 3.15971C5.44452 2.93408 5.74974 2.80732 6.068 2.80732C6.38626 2.80732 6.69148 2.93408 6.91653 3.15971C7.14157 3.38534 7.268 3.69136 7.268 4.01046ZM3.6 8.823C3.91826 8.823 4.22348 8.69625 4.44853 8.47061C4.67357 8.24498 4.8 7.93896 4.8 7.61987C4.8 7.30078 4.67357 6.99475 4.44853 6.76912C4.22348 6.54349 3.91826 6.41673 3.6 6.41673C3.28174 6.41673 2.97652 6.54349 2.75147 6.76912C2.52643 6.99475 2.4 7.30078 2.4 7.61987C2.4 7.93896 2.52643 8.24498 2.75147 8.47061C2.97652 8.69625 3.28174 8.823 3.6 8.823ZM12.4 8.823C12.7183 8.823 13.0235 8.69625 13.2485 8.47061C13.4736 8.24498 13.6 7.93896 13.6 7.61987C13.6 7.30078 13.4736 6.99475 13.2485 6.76912C13.0235 6.54349 12.7183 6.41673 12.4 6.41673C12.0817 6.41673 11.7765 6.54349 11.5515 6.76912C11.3264 6.99475 11.2 7.30078 11.2 7.61987C11.2 7.93896 11.3264 8.24498 11.5515 8.47061C11.7765 8.69625 12.0817 8.823 12.4 8.823ZM10 5.21359C10.1576 5.21359 10.3136 5.18247 10.4592 5.12201C10.6048 5.06155 10.7371 4.97292 10.8485 4.8612C10.96 4.74948 11.0484 4.61685 11.1087 4.47088C11.169 4.32491 11.2 4.16845 11.2 4.01046C11.2 3.85246 11.169 3.69601 11.1087 3.55004C11.0484 3.40406 10.96 3.27143 10.8485 3.15971C10.7371 3.04799 10.6048 2.95937 10.4592 2.8989C10.3136 2.83844 10.1576 2.80732 10 2.80732C9.68174 2.80732 9.37652 2.93408 9.15147 3.15971C8.92643 3.38534 8.8 3.69136 8.8 4.01046C8.8 4.32955 8.92643 4.63557 9.15147 4.8612C9.37652 5.08683 9.68174 5.21359 10 5.21359Z"
  />
</svg>
