<svg width="15" height="16" viewBox="0 0 15 16" fill="none" xmlns="http://www.w3.org/2000/svg">
  <path
    fill="currentColor"
    fill-rule="evenodd"
    clip-rule="evenodd"
    d="M5.76555 0.326388C5.19992 0.828015 5.19992 1.74566 5.19992 3.58016V12.419C5.19992 14.2535 5.19992 15.1712 5.76555 15.6728C6.33118 16.1744 7.19602 16.024 8.92571 15.7224L10.7898 15.3976C12.7051 15.0632 13.6628 14.896 14.2316 14.1935C14.8004 13.4903 14.8004 12.4742 14.8004 10.4413V5.55787C14.8004 3.52576 14.8004 2.50971 14.2324 1.80647C13.6628 1.10403 12.7043 0.936821 10.789 0.603203L8.92651 0.277586C7.19682 -0.0240304 6.33198 -0.174438 5.76635 0.327188M7.60004 6.53472C7.93126 6.53472 8.20008 6.81554 8.20008 7.16195V8.83724C8.20008 9.18366 7.93126 9.46448 7.60004 9.46448C7.26883 9.46448 7.00001 9.18366 7.00001 8.83724V7.16195C7.00001 6.81554 7.26883 6.53472 7.60004 6.53472Z"
  />
  <path
    fill="currentColor"
    d="M4.03745 1.99928C2.39096 2.00168 1.53252 2.03768 0.98529 2.58491C0.399658 3.17054 0.399658 4.11299 0.399658 5.99949V9.99971C0.399658 11.8854 0.399658 12.8279 0.98529 13.4143C1.53252 13.9607 2.39096 13.9975 4.03745 13.9999C3.99985 13.5007 3.99985 12.9247 3.99985 12.3014V3.69777C3.99985 3.07374 3.99985 2.4977 4.03745 1.99928Z"
  />
</svg>
