<svg width="16" height="16" viewBox="0 0 16 16" fill="none" xmlns="http://www.w3.org/2000/svg">
  <path
    fill="currentColor"
    fill-rule="evenodd"
    clip-rule="evenodd"
    d="M1.1712 1.1712C0.3072 2.0352 0.0808 3.2888 0.0208 5.4H15.9792C15.9192 3.288 15.6928 2.036 14.828 1.1712C13.6576 0 11.7712 0 8 0C4.2288 0 2.3432 0 1.1712 1.1712ZM0 8C0 7.50187 0.000800017 7.0352 0.00240002 6.6H5V15.9648C3.128 15.8872 1.98 15.6368 1.1712 14.8288C0 13.656 0 11.7712 0 8ZM3.2 4C3.41217 4 3.61566 3.91571 3.76569 3.76569C3.91571 3.61566 4 3.41217 4 3.2C4 2.98783 3.91571 2.78434 3.76569 2.63431C3.61566 2.48429 3.41217 2.4 3.2 2.4C2.98783 2.4 2.78434 2.48429 2.63431 2.63431C2.48429 2.78434 2.4 2.98783 2.4 3.2C2.4 3.41217 2.48429 3.61566 2.63431 3.76569C2.78434 3.91571 2.98783 4 3.2 4ZM6.4 3.2C6.4 3.41217 6.31571 3.61566 6.16569 3.76569C6.01566 3.91571 5.81217 4 5.6 4C5.38783 4 5.18434 3.91571 5.03431 3.76569C4.88429 3.61566 4.8 3.41217 4.8 3.2C4.8 2.98783 4.88429 2.78434 5.03431 2.63431C5.18434 2.48429 5.38783 2.4 5.6 2.4C5.81217 2.4 6.01566 2.48429 6.16569 2.63431C6.31571 2.78434 6.4 2.98783 6.4 3.2ZM8 4C8.21217 4 8.41566 3.91571 8.56569 3.76569C8.71571 3.61566 8.8 3.41217 8.8 3.2C8.8 2.98783 8.71571 2.78434 8.56569 2.63431C8.41566 2.48429 8.21217 2.4 8 2.4C7.78783 2.4 7.58434 2.48429 7.43431 2.63431C7.28429 2.78434 7.2 2.98783 7.2 3.2C7.2 3.41217 7.28429 3.61566 7.43431 3.76569C7.58434 3.91571 7.78783 4 8 4Z"
  />
  <path
    fill="currentColor"
    d="M16 8C16 11.7712 16 13.6568 14.828 14.828C13.6576 16 11.7712 16 8 16C7.3448 16 6.7472 16 6.2 15.9936V6.6H15.9976C15.9992 7.0352 16 7.50187 16 8Z"
  />
</svg>
