<svg width="16" height="16" viewBox="0 0 16 16" fill="none" xmlns="http://www.w3.org/2000/svg">
  <path
    fill="currentColor"
    d="M14.4736 9.8608L14.628 8.3456C14.7104 7.5368 14.764 7.0032 14.7216 6.6664H14.7376C15.4344 6.6664 16 6.0696 16 5.3336C16 4.5976 15.4344 4 14.7368 4C14.0392 4 13.4736 4.5968 13.4736 5.3336C13.4736 5.6664 13.5896 5.9712 13.7808 6.2048C13.5064 6.3832 13.1472 6.7608 12.6064 7.3288C12.1904 7.7664 11.9824 7.9848 11.7504 8.0192C11.6215 8.03759 11.49 8.01813 11.372 7.9632C11.1576 7.864 11.0144 7.5936 10.7288 7.052L9.2216 4.2C9.0456 3.8664 8.8976 3.5872 8.764 3.3624C9.3104 3.068 9.684 2.4688 9.684 1.7784C9.684 0.7952 8.9304 0 8 0C7.0696 0 6.316 0.796 6.316 1.7776C6.316 2.4688 6.6896 3.068 7.236 3.3616C7.1024 3.5872 6.9552 3.8664 6.7784 4.2L5.272 7.0528C4.9856 7.5936 4.8424 7.864 4.628 7.964C4.50995 8.01893 4.37849 8.03838 4.2496 8.02C4.0176 7.9856 3.8096 7.7664 3.3936 7.3288C2.8528 6.7608 2.4936 6.3832 2.2192 6.2048C2.4112 5.9712 2.5264 5.6664 2.5264 5.3328C2.5264 4.5976 1.96 4 1.2624 4C0.5664 4 0 4.5968 0 5.3336C0 6.0696 0.5656 6.6664 1.2632 6.6664H1.2784C1.2352 7.0024 1.2896 7.5368 1.372 8.3456L1.5264 9.8608C1.612 10.7016 1.6832 11.5016 1.7712 12.2224H14.2288C14.3168 11.5024 14.388 10.7016 14.4736 9.8608ZM7.084 16H8.916C11.304 16 12.4984 16 13.2952 15.248C13.6424 14.9184 13.8632 14.3264 14.0216 13.5552H1.9784C2.1368 14.3264 2.3568 14.9184 2.7048 15.2472C3.5016 16 4.696 16 7.084 16Z"
  />
</svg>
