<svg width="16" height="16" viewBox="0 0 16 16" fill="none" xmlns="http://www.w3.org/2000/svg">
  <path
    fill="currentColor"
    fill-rule="evenodd"
    clip-rule="evenodd"
    d="M9.02345 0.1216C8.72745 -3.57628e-08 8.35145 0 7.60025 0C6.84905 0 6.47385 -3.57628e-08 6.17705 0.1216C5.98176 0.201396 5.80418 0.319025 5.65453 0.467717C5.50488 0.616409 5.38611 0.793229 5.30505 0.988C5.22985 1.1664 5.20105 1.3752 5.18905 1.6784C5.18334 1.898 5.12191 2.11255 5.01051 2.30188C4.89912 2.49122 4.74143 2.64914 4.55225 2.7608C4.35925 2.86808 4.14229 2.92492 3.92147 2.92603C3.70066 2.92715 3.48313 2.87252 3.28905 2.7672C3.01865 2.6248 2.82265 2.5464 2.62905 2.5208C2.20552 2.46554 1.77727 2.57936 1.43705 2.8376C1.18265 3.0312 0.994652 3.3544 0.619452 4C0.243452 4.6456 0.0562524 4.968 0.0138524 5.284C-0.0421476 5.7048 0.0730525 6.1304 0.333852 6.4672C0.452252 6.6208 0.619453 6.7496 0.877853 6.9112C1.25945 7.1488 1.50425 7.5536 1.50425 8C1.50425 8.4464 1.25945 8.8512 0.878653 9.088C0.619452 9.2504 0.452252 9.3792 0.333052 9.5328C0.204706 9.69937 0.110452 9.8896 0.055681 10.0926C0.000910008 10.2957 -0.0133038 10.5075 0.0138524 10.716C0.0562524 11.0312 0.243452 11.3544 0.619452 12C0.995452 12.6456 1.18265 12.968 1.43705 13.1624C1.77625 13.4208 2.20505 13.5344 2.62905 13.4792C2.82265 13.4536 3.01865 13.3752 3.28905 13.2328C3.48323 13.1273 3.70091 13.0726 3.92187 13.0737C4.14284 13.0749 4.35995 13.1318 4.55305 13.2392C4.94185 13.4632 5.17225 13.8752 5.18905 14.3216C5.20105 14.6256 5.22985 14.8336 5.30505 15.012C5.46825 15.404 5.78185 15.716 6.17705 15.8784C6.47305 16 6.84905 16 7.60025 16C8.35145 16 8.72745 16 9.02345 15.8784C9.21874 15.7986 9.39632 15.681 9.54598 15.5323C9.69563 15.3836 9.8144 15.2068 9.89545 15.012C9.97065 14.8336 9.99945 14.6256 10.0115 14.3216C10.0275 13.8752 10.2587 13.4624 10.6483 13.2392C10.8413 13.1319 11.0582 13.0751 11.279 13.074C11.4998 13.0728 11.7174 13.1275 11.9115 13.2328C12.1819 13.3752 12.3779 13.4536 12.5715 13.4792C12.9955 13.5352 13.4243 13.4208 13.7635 13.1624C14.0179 12.9688 14.2059 12.6456 14.5811 12C14.9571 11.3544 15.1443 11.032 15.1867 10.716C15.2137 10.5074 15.1994 10.2956 15.1444 10.0925C15.0895 9.88952 14.9951 9.69931 14.8667 9.5328C14.7483 9.3792 14.5811 9.2504 14.3227 9.0888C13.9411 8.8512 13.6963 8.4464 13.6963 8C13.6963 7.5536 13.9411 7.1488 14.3219 6.912C14.5811 6.7496 14.7483 6.6208 14.8675 6.4672C14.9958 6.30063 15.0901 6.1104 15.1448 5.90737C15.1996 5.70435 15.2138 5.49252 15.1867 5.284C15.1443 4.9688 14.9571 4.6456 14.5811 4C14.2051 3.3544 14.0179 3.032 13.7635 2.8376C13.4232 2.57936 12.995 2.46554 12.5715 2.5208C12.3779 2.5464 12.1819 2.6248 11.9115 2.7672C11.7173 2.87266 11.4996 2.92737 11.2786 2.92625C11.0577 2.92514 10.8406 2.86822 10.6475 2.7608C10.4584 2.64904 10.3009 2.49108 10.1896 2.30175C10.0784 2.11242 10.0171 1.89792 10.0115 1.6784C9.99945 1.3744 9.97065 1.1664 9.89545 0.988C9.8144 0.793229 9.69563 0.616409 9.54598 0.467717C9.39632 0.319025 9.21874 0.201396 9.02345 0.1216ZM7.60025 10.4C8.93625 10.4 10.0187 9.3256 10.0187 8C10.0187 6.6744 8.93545 5.6 7.60025 5.6C6.26505 5.6 5.18185 6.6744 5.18185 8C5.18185 9.3256 6.26505 10.4 7.60025 10.4Z"
  />
</svg>
