<svg width="16" height="16" viewBox="0 0 16 16" fill="none" xmlns="http://www.w3.org/2000/svg">
<path fill-rule="evenodd" clip-rule="evenodd" d="M9.3032 14.7776L8.8696 15.5104C8.4832 16.1632 7.5176 16.1632 7.1304 15.5104L6.6968 14.7776C6.3608 14.2096 6.1928 13.9248 5.9224 13.768C5.652 13.6104 5.312 13.6048 4.632 13.5928C3.6272 13.576 2.9976 13.5144 2.4696 13.2952C1.98429 13.0942 1.54333 12.7995 1.1719 12.4281C0.800458 12.0567 0.505819 11.6157 0.3048 11.1304C2.38419e-08 10.396 0 9.464 0 7.6V6.8C0 4.1816 0 2.872 0.5896 1.9104C0.919233 1.37216 1.37156 0.919559 1.9096 0.5896C2.872 0 4.1824 0 6.8 0H9.2C11.8184 0 13.128 0 14.0904 0.5896C14.6284 0.919333 15.0807 1.37165 15.4104 1.9096C16 2.872 16 4.1824 16 6.8V7.6C16 9.464 16 10.396 15.696 11.1304C15.4949 11.6158 15.2001 12.0568 14.8285 12.4282C14.457 12.7997 14.0159 13.0943 13.5304 13.2952C13.0024 13.5144 12.3728 13.5752 11.368 13.5928C10.688 13.6048 10.348 13.6104 10.0776 13.768C9.8072 13.9248 9.6392 14.2088 9.3032 14.7776ZM4.8 7.8C4.64087 7.8 4.48826 7.86321 4.37574 7.97574C4.26321 8.08826 4.2 8.24087 4.2 8.4C4.2 8.55913 4.26321 8.71174 4.37574 8.82426C4.48826 8.93679 4.64087 9 4.8 9H9.2C9.35913 9 9.51174 8.93679 9.62426 8.82426C9.73679 8.71174 9.8 8.55913 9.8 8.4C9.8 8.24087 9.73679 8.08826 9.62426 7.97574C9.51174 7.86321 9.35913 7.8 9.2 7.8H4.8ZM4.2 5.6C4.2 5.44087 4.26321 5.28826 4.37574 5.17574C4.48826 5.06321 4.64087 5 4.8 5H11.2C11.3591 5 11.5117 5.06321 11.6243 5.17574C11.7368 5.28826 11.8 5.44087 11.8 5.6C11.8 5.75913 11.7368 5.91174 11.6243 6.02426C11.5117 6.13679 11.3591 6.2 11.2 6.2H4.8C4.64087 6.2 4.48826 6.13679 4.37574 6.02426C4.26321 5.91174 4.2 5.75913 4.2 5.6Z" fill="#FAFAFA"/>
</svg>
