<svg width="16" height="15" viewBox="0 0 16 15" fill="none" xmlns="http://www.w3.org/2000/svg">
  <path
    fill="currentColor"
    d="M0.129598 5.00016C-4.7683e-08 5.88255 0 7.04013 0 8.6001C0 11.6169 -9.53659e-08 13.1256 0.937585 14.0624C1.87517 14.9992 3.38315 15 6.3999 15H9.59985C12.6166 15 14.1254 15 15.0622 14.0624C15.9989 13.1248 15.9997 11.6169 15.9997 8.6001C15.9997 7.04013 15.9997 5.88335 15.8701 5.00016C14.0486 6.18414 12.8814 6.93933 11.7998 7.40412V7.80012C11.8016 7.95924 11.7401 8.11257 11.6289 8.22636C11.5176 8.34016 11.3657 8.4051 11.2066 8.40691C11.0475 8.40871 10.8942 8.34723 10.7804 8.23598C10.6666 8.12474 10.6016 7.97284 10.5998 7.81371C8.89563 8.26296 7.10411 8.26296 5.39991 7.81371C5.39811 7.97284 5.33317 8.12474 5.21937 8.23598C5.10558 8.34723 4.95225 8.40871 4.79312 8.40691C4.634 8.4051 4.4821 8.34016 4.37086 8.22636C4.25961 8.11257 4.19813 7.95924 4.19993 7.80012V7.40412C3.11835 6.93853 1.95197 6.18414 0.129598 5.00016Z"
  />
  <path
    fill="currentColor"
    fill-rule="evenodd"
    clip-rule="evenodd"
    d="M6.84869 0.000240499C6.75749 0.000240499 6.68709 0.000240591 6.61989 0.00424053C6.20424 0.0295078 5.8043 0.172223 5.46655 0.415798C5.12881 0.659374 4.86712 0.993804 4.71192 1.38022C4.67785 1.47094 4.64584 1.56243 4.61593 1.65461L4.61273 1.66421C4.53043 1.88224 4.3912 2.07423 4.20953 2.2202C4.02767 2.22607 3.85354 2.23407 3.68714 2.2442C2.37196 2.321 1.53758 2.537 0.937585 3.13779C0.742396 3.3324 0.582189 3.55918 0.463993 3.80818C0.510392 3.82418 0.554924 3.84578 0.59759 3.87298C2.27756 4.96496 3.33355 5.64895 4.21113 6.08654C4.23977 5.94038 4.32175 5.8101 4.44113 5.72103C4.5605 5.63196 4.70873 5.59048 4.857 5.60465C5.00527 5.61881 5.14296 5.68762 5.24331 5.79769C5.34365 5.90775 5.39947 6.0512 5.39991 6.20014V6.56653C7.09589 7.07853 8.90386 7.07853 10.5998 6.56653V6.20014C10.5992 6.05048 10.6546 5.90599 10.755 5.79504C10.8555 5.6841 10.9938 5.6147 11.1428 5.60047C11.2918 5.58624 11.4407 5.62821 11.5603 5.71814C11.68 5.80807 11.7617 5.93947 11.7894 6.08654C12.6662 5.64815 13.7222 4.96496 15.4022 3.87298C15.444 3.84627 15.4889 3.82452 15.5358 3.80818C15.4176 3.55918 15.2573 3.3324 15.0622 3.13779C14.4622 2.5378 13.6278 2.3218 12.3126 2.2434C12.1547 2.23487 11.9899 2.2274 11.8182 2.221L11.7862 2.19381C11.6005 2.03329 11.4564 1.83017 11.3662 1.60181L11.3638 1.59461C11.335 1.50902 11.3134 1.44182 11.2878 1.37942C11.1325 0.993154 10.8708 0.65889 10.533 0.415463C10.1953 0.172036 9.79541 0.0294398 9.37985 0.00424053C9.3039 0.000740747 9.22787 -0.000593198 9.15185 0.000240499H6.84869ZM10.2542 2.05301L10.2502 2.04421L10.2462 2.03461L10.243 2.02501L10.2382 2.01301L10.2302 1.98901L10.2278 1.98261L10.2262 1.97701L10.2246 1.97221C10.2093 1.92355 10.1927 1.87527 10.175 1.82741C10.1045 1.65163 9.98541 1.49952 9.83175 1.38877C9.67809 1.27802 9.49613 1.21318 9.30705 1.20182C9.24974 1.19975 9.19239 1.19921 9.13505 1.20022H6.86469C6.75029 1.20022 6.71829 1.20022 6.69269 1.20182C6.50376 1.21333 6.32197 1.27823 6.16846 1.38897C6.01495 1.49971 5.89602 1.65175 5.82551 1.82741L5.82311 1.83301L5.81671 1.84981C5.79494 1.91072 5.7744 1.97207 5.75511 2.03381L5.75351 2.03861L5.75111 2.04421L5.74951 2.05061L5.74151 2.07461L5.73671 2.08661L5.73351 2.09621L5.72951 2.10581L5.72631 2.11381L5.72551 2.11461L5.69031 2.201L6.3999 2.20021H10.3166C10.2942 2.15185 10.2734 2.10275 10.2542 2.05301Z"
  />
</svg>
